<svg xmlns="http://www.w3.org/2000/svg" xmlns:xlink="http://www.w3.org/1999/xlink" width="500" zoomAndPan="magnify" viewBox="0 0 375 374.999991" height="500" preserveAspectRatio="xMidYMid meet" version="1.0"><defs><clipPath id="20ef10247c"><path d="M 5 18.460938 L 369 18.460938 L 369 360.460938 L 5 360.460938 Z M 5 18.460938 " clip-rule="nonzero"/></clipPath></defs><rect x="-37.5" width="450" fill="#ffffff" y="-37.499999" height="449.999989" fill-opacity="1"/><rect x="-37.5" width="450" fill="#ffffff" y="-37.499999" height="449.999989" fill-opacity="1"/><rect x="-37.5" width="450" fill="#35363a" y="-37.499999" height="449.999989" fill-opacity="1"/><g clip-path="url(#20ef10247c)"><path fill="#fea116" d="M 359.730469 87.796875 L 321.527344 27.210938 C 318.128906 21.800781 312.0625 18.460938 305.59375 18.460938 L 67.730469 18.460938 C 61.261719 18.460938 55.195312 21.800781 51.796875 27.210938 L 13.527344 87.796875 C -6.203125 119.058594 11.261719 162.542969 48.128906 167.550781 C 50.796875 167.886719 53.527344 168.085938 56.195312 168.085938 C 73.59375 168.085938 89.0625 160.472656 99.660156 148.714844 C 110.261719 160.472656 125.730469 168.085938 143.128906 168.085938 C 160.527344 168.085938 175.996094 160.472656 186.59375 148.714844 C 197.195312 160.472656 212.660156 168.085938 230.0625 168.085938 C 247.527344 168.085938 262.929688 160.472656 273.527344 148.714844 C 284.195312 160.472656 299.59375 168.085938 316.996094 168.085938 C 319.730469 168.085938 322.394531 167.886719 325.0625 167.550781 C 362.0625 162.609375 379.59375 119.125 359.796875 87.796875 Z M 327.796875 188.726562 L 327.730469 188.726562 C 324.195312 189.195312 320.59375 189.460938 316.929688 189.460938 C 308.660156 189.460938 300.730469 188.191406 293.328125 185.921875 L 293.328125 274.960938 L 79.996094 274.960938 L 79.996094 185.855469 C 72.527344 188.191406 64.527344 189.460938 56.261719 189.460938 C 52.59375 189.460938 48.929688 189.195312 45.394531 188.726562 L 45.328125 188.726562 C 42.59375 188.324219 39.929688 187.859375 37.328125 187.191406 L 37.328125 317.710938 C 37.328125 341.289062 56.460938 360.460938 79.996094 360.460938 L 293.328125 360.460938 C 316.863281 360.460938 335.996094 341.289062 335.996094 317.710938 L 335.996094 187.191406 C 333.328125 187.859375 330.660156 188.390625 327.796875 188.726562 Z M 327.796875 188.726562 " fill-opacity="1" fill-rule="nonzero"/></g></svg>